<svg width="33" height="33" viewBox="0 0 33 33" fill="none" xmlns="http://www.w3.org/2000/svg">
<rect x="0.29541" y="0.729294" width="32" height="32" rx="16" fill="#252836"/>
<g clip-path="url(#clip0_12424_16)">
<path d="M24.3086 10.1076L16.4637 7.75404C16.3538 7.72107 16.2368 7.72107 16.1269 7.75404L8.2818 10.1076C8.03398 10.1819 7.86426 10.41 7.86426 10.6688V19.2983C7.86426 20.4207 8.31867 21.5697 9.2148 22.7133C9.89922 23.5868 10.8461 24.4638 12.0291 25.3202C14.0165 26.7588 15.9735 27.6413 16.0559 27.6781C16.132 27.7122 16.2136 27.7293 16.2953 27.7293C16.3769 27.7293 16.4586 27.7123 16.5347 27.6781C16.617 27.6413 18.5739 26.7588 20.5613 25.3202C21.7443 24.4638 22.6912 23.5868 23.3757 22.7133C24.2718 21.5697 24.7261 20.4208 24.7261 19.2983V10.6688C24.7261 10.41 24.5565 10.1819 24.3086 10.1076Z" fill="#92929D"/>
</g>
<defs>
<clipPath id="clip0_12424_16">
<rect width="20" height="20" fill="white" transform="translate(6.29541 7.72931)"/>
</clipPath>
</defs>
</svg>
