<svg width="33" height="33" viewBox="0 0 33 33" fill="none" xmlns="http://www.w3.org/2000/svg">
<rect x="0.0454102" y="0.522522" width="32" height="32" rx="16" fill="#252836"/>
<g clip-path="url(#clip0_12424_15)">
<path d="M16.0454 6.52252C10.5528 6.52252 6.04541 11.0299 6.04541 16.5225C6.04541 22.0151 10.5528 26.5225 16.0454 26.5225C21.538 26.5225 26.0454 22.0151 26.0454 16.5225C26.0454 11.0299 21.538 6.52252 16.0454 6.52252ZM17.2173 21.21C17.2173 21.856 16.6914 22.3819 16.0454 22.3819C15.3994 22.3819 14.8735 21.856 14.8735 21.21V15.3506C14.8735 14.7046 15.3994 14.1788 16.0454 14.1788C16.6914 14.1788 17.2173 14.7046 17.2173 15.3506V21.21ZM16.0454 13.0069C15.3994 13.0069 14.8735 12.481 14.8735 11.835C14.8735 11.189 15.3994 10.6631 16.0454 10.6631C16.6914 10.6631 17.2173 11.189 17.2173 11.835C17.2173 12.481 16.6914 13.0069 16.0454 13.0069Z" fill="#92929D"/>
</g>
<defs>
<clipPath id="clip0_12424_15">
<rect width="20" height="20" fill="white" transform="translate(6.04541 6.52252)"/>
</clipPath>
</defs>
</svg>
