<svg width="63" height="55" viewBox="0 0 63 55" fill="none" xmlns="http://www.w3.org/2000/svg">
<path d="M31.6369 53.6829C31.6053 53.7019 31.5758 53.7195 31.5485 53.7358C31.5209 53.7191 31.4911 53.701 31.4591 53.6816C31.2348 53.5453 30.9049 53.3425 30.4845 53.0777C29.6437 52.5483 28.4412 51.7713 26.9977 50.7829C24.1098 48.8057 20.2616 45.9856 16.4157 42.6126C12.5676 39.2377 8.73547 35.321 5.86871 31.1523C2.99882 26.979 1.12524 22.5952 1.12524 18.2756C1.12524 8.617 8.46212 0.842461 17.4465 0.842478L17.4507 0.842444C22.9518 0.796707 28.1092 3.74627 31.1197 8.68993L31.5442 9.38713L31.9724 8.69215C35.0041 3.77151 40.1494 0.828527 45.6448 0.842458C54.612 0.889376 61.9236 8.63747 61.968 18.2771C61.9676 22.6635 60.093 27.0802 57.2242 31.2641C54.3578 35.4445 50.5262 39.3526 46.6786 42.7107C42.8331 46.067 38.9853 48.8621 36.0977 50.8187C34.6543 51.7966 33.452 52.5643 32.6113 53.0871C32.191 53.3484 31.8612 53.5485 31.6369 53.6829Z" fill="#05D8E8" stroke="white"/>
</svg>
