<svg width="33" height="32" viewBox="0 0 33 32" fill="none" xmlns="http://www.w3.org/2000/svg">
<rect width="32.854" height="31.4728" rx="15.7364" fill="#252836"/>
<path d="M26.6939 15.7364C26.6939 14.4448 26.4283 13.1659 25.9124 11.9726C25.3964 10.7793 24.6402 9.69512 23.6868 8.78183C22.7334 7.86854 21.6016 7.14409 20.356 6.64982C19.1104 6.15555 17.7753 5.90115 16.427 5.90115C13.7041 5.90115 11.0927 6.93736 9.16725 8.78183C7.24184 10.6263 6.16016 13.1279 6.16016 15.7364C6.16016 18.3449 7.24184 20.8465 9.16725 22.691C11.0927 24.5354 13.7041 25.5717 16.427 25.5717C19.15 25.5717 21.7614 24.5354 23.6868 22.691C25.6122 20.8465 26.6939 18.3449 26.6939 15.7364ZM24.5687 14.7529H21.5605C21.3911 12.4398 20.5638 10.2152 19.1683 8.32063C20.602 8.80842 21.8661 9.66812 22.8197 10.8039C23.7732 11.9396 24.3787 13.3068 24.5687 14.7529ZM13.4291 16.7199H19.5071C19.2443 19.1498 18.1632 21.4318 16.427 23.221C14.692 21.4392 13.6357 19.1485 13.4291 16.7199ZM13.4291 14.7529C13.6682 12.3352 14.7203 10.0573 16.427 8.26161C18.1772 10.038 19.2608 12.3216 19.5071 14.7529H13.4291ZM13.7987 8.29112C12.3958 10.1962 11.5552 12.4285 11.3655 14.7529H8.2854C8.47935 13.2889 9.09916 11.9067 10.0741 10.7641C11.049 9.62146 12.3396 8.76452 13.7987 8.29112ZM8.2854 16.7199H11.3655C11.5345 19.0423 12.3694 21.2749 13.7782 23.1719C12.3244 22.6961 11.039 21.8394 10.068 20.6989C9.09705 19.5584 8.47946 18.1798 8.2854 16.7199ZM19.117 23.162C20.5219 21.2645 21.3661 19.0388 21.5605 16.7199H24.5892C24.395 18.1758 23.7797 19.5506 22.8127 20.689C21.8456 21.8274 20.5655 22.684 19.117 23.162Z" fill="#92929D"/>
</svg>
