<svg width="32" height="32" viewBox="0 0 32 32" fill="none" xmlns="http://www.w3.org/2000/svg">
<rect width="32" height="32" rx="16" fill="#1F1D2B"/>
<path d="M17.3117 15.997L12.2174 21.2346C12.0772 21.3785 12 21.5709 12 21.776C12 21.9812 12.0772 22.1734 12.2174 22.3175L12.6638 22.7762C12.8039 22.9206 12.9911 23 13.1906 23C13.3901 23 13.5771 22.9206 13.7172 22.7762L19.7828 16.5404C19.9235 16.3959 20.0006 16.2027 20 15.9974C20.0006 15.7911 19.9236 15.5982 19.7828 15.4535L13.7229 9.22377C13.5827 9.07945 13.3957 9 13.1961 9C12.9966 9 12.8096 9.07945 12.6694 9.22377L12.2231 9.68247C11.9327 9.98102 11.9327 10.467 12.2231 10.7655L17.3117 15.997Z" fill="#12CDD9"/>
</svg>
