<svg width="34" height="33" viewBox="0 0 34 33" fill="none" xmlns="http://www.w3.org/2000/svg">
<rect x="0.799805" y="0.949715" width="32.854" height="31.4728" rx="15.7364" fill="#252836"/>
<path d="M20.0835 23.9043C20.0835 24.8779 19.5417 25.623 18.6618 26.11C17.7821 26.5968 16.6982 26.5968 15.8202 26.11C14.94 25.623 14.3984 24.8779 14.3984 23.9043" fill="#92929D"/>
<path d="M17.2402 6.90561C18.0156 6.90561 18.6401 7.36354 18.6401 8.06775C18.6401 8.51099 18.6562 8.84172 18.947 8.92643C21.4195 9.64165 23.005 11.3181 23.005 13.4952V17.1545C23.005 18.8309 23.7209 19.1703 24.622 19.8116C25.9268 20.7387 25.6289 22.6693 24.1316 22.668H10.3494C8.85203 22.6693 8.55415 20.7387 9.859 19.8116C10.7589 19.1703 11.476 18.8309 11.476 17.1545V13.4952C11.476 11.3181 13.0614 9.64165 15.534 8.92643C15.8239 8.84172 15.8409 8.51099 15.8409 8.06775C15.8412 7.36354 16.4659 6.90561 17.2402 6.90561Z" fill="#92929D"/>
</svg>
