<svg width="32" height="32" viewBox="0 0 32 32" fill="none" xmlns="http://www.w3.org/2000/svg">
<rect width="32" height="32" rx="16" fill="#1F1D2B"/>
<path d="M14.6883 15.997L19.7826 21.2346C19.9228 21.3785 20 21.5709 20 21.776C20 21.9812 19.9228 22.1734 19.7826 22.3175L19.3362 22.7762C19.1961 22.9206 19.0089 23 18.8094 23C18.6099 23 18.4229 22.9206 18.2828 22.7762L12.2172 16.5404C12.0765 16.3959 11.9994 16.2027 12 15.9974C11.9994 15.7911 12.0764 15.5982 12.2172 15.4535L18.2771 9.22377C18.4173 9.07945 18.6043 9 18.8039 9C19.0034 9 19.1904 9.07945 19.3306 9.22377L19.7769 9.68247C20.0673 9.98102 20.0673 10.467 19.7769 10.7655L14.6883 15.997Z" fill="#12CDD9"/>
</svg>
